<svg xmlns="http://www.w3.org/2000/svg" viewBox="0 0 119.85 137.85"><defs><style>.cls-1{fill:#fff;}</style></defs><g id="Warstwa_2" data-name="Warstwa 2"><g id="Warstwa_1-2" data-name="Warstwa 1"><path class="cls-1" d="M13.05,67.2h.3c1.8-2.55,4.35-5.7,6.45-8.25L41.1,33.9H57L29,63.75l32,42.75h-16l-25-34.8-6.75,7.5v27.3H0V0H13.05Z"/><path class="cls-1" d="M52.65,127.5c6-.45,11.25-2.1,14.4-5.55,3.6-4.2,5-9.9,5-27.3V33.9H85.2V99.75c0,14.1-2.25,23.25-8.7,29.85-5.85,5.85-15.45,8.25-22.5,8.25ZM86.7,13.5c.15,4.35-3,8.1-8.25,8.1a7.88,7.88,0,0,1-8.1-8.1,8.08,8.08,0,0,1,8.4-8.25C83.55,5.25,86.7,8.85,86.7,13.5Z"/><path class="cls-1" d="M102,98.7c0-5.55,3.75-9.45,9-9.45s8.85,3.9,8.85,9.45c0,5.4-3.45,9.45-9,9.45C105.6,108.15,102,104.1,102,98.7Z"/></g></g></svg>