<svg xmlns="http://www.w3.org/2000/svg" viewBox="0 0 271.95 221.97"><defs><style>.cls-1{fill:#082939;}.cls-2{fill:none;stroke:#fff;stroke-miterlimit:10;stroke-width:0.5px;}.cls-3{fill:#e94546;}.cls-4{fill:#f5bc24;}.cls-5{fill:#448d6a;}.cls-6{fill:#07212b;}</style></defs><g id="Warstwa_2" data-name="Warstwa 2"><g id="Warstwa_1-2" data-name="Warstwa 1"><g id="Warstwa_2-2" data-name="Warstwa 2"><g id="Warstwa_1-2-2" data-name="Warstwa 1-2"><path class="cls-1" d="M261,0H11A11,11,0,0,0,0,11V207.59A14.38,14.38,0,0,0,14.42,222l246.54,0a11,11,0,0,0,11-11V11A11,11,0,0,0,261,0Z"/><line class="cls-2" y1="20.85" x2="271.82" y2="20.85"/><circle class="cls-3" cx="13.94" cy="12.95" r="2.21"/><circle class="cls-4" cx="21.45" cy="12.95" r="2.21"/><circle class="cls-5" cx="29" cy="12.95" r="2.21"/><path class="cls-6" d="M0,21.17H40.59V222H7.74A7.74,7.74,0,0,1,0,214.24V21.17Z"/></g></g></g></g></svg>